<svg width="23" height="12" viewBox="0 0 23 12" fill="none" xmlns="http://www.w3.org/2000/svg">
<path d="M22 1L12.0654 10.7596C11.9929 10.8355 11.9053 10.896 11.808 10.9373C11.7108 10.9787 11.606 11 11.5 11C11.394 11 11.2892 10.9787 11.192 10.9373C11.0947 10.896 11.0071 10.8355 10.9346 10.7596L1 1" fill="#E2B01C"/>
<path d="M22 1L12.0654 10.7596C11.9929 10.8355 11.9053 10.896 11.808 10.9373C11.7108 10.9787 11.606 11 11.5 11C11.394 11 11.2892 10.9787 11.192 10.9373C11.0947 10.896 11.0071 10.8355 10.9346 10.7596L1 1" stroke="#EFEFEF" stroke-linecap="round" stroke-linejoin="round"/>
</svg>
