<svg width="48" height="48" viewBox="0 0 48 48" fill="none" xmlns="http://www.w3.org/2000/svg">
<path d="M23.998 47V18.6761M23.998 18.6761L1.38915 9.92261M23.998 18.6761L46.6068 9.92261M46.6068 9.78031C46.4183 9.52304 46.1605 9.32547 45.8638 9.21098L24.6349 1.13368C24.434 1.04551 24.2172 1 23.998 1C23.7788 1 23.562 1.04551 23.3611 1.13368L2.13221 9.35332C1.85174 9.42802 1.59559 9.57523 1.3892 9.78031C1.14205 10.081 1.0047 10.4577 1 10.8478V36.8944C1.00459 37.2498 1.11489 37.5956 1.31668 37.8873C1.51848 38.1791 1.80252 38.4033 2.13221 38.5313L23.3611 46.7509H24.6349L45.8638 38.5313C46.1935 38.4033 46.4775 38.1791 46.6793 37.8873C46.8811 37.5956 46.9914 37.2498 46.996 36.8944V10.9901C47.0259 10.5515 46.8865 10.1182 46.6068 9.78031Z" stroke="#EDEDED" stroke-width="2" stroke-linecap="round" stroke-linejoin="round"/>
</svg>
