<svg width="48" height="48" viewBox="0 0 48 48" fill="none" xmlns="http://www.w3.org/2000/svg">
<path d="M11.6154 6.30769V13.3846M24 1V13.3846M36.3846 6.30769V13.3846M4.53846 22.2308H43.4615C45.4158 22.2308 47 23.815 47 25.7692V43.4615C47 45.4158 45.4158 47 43.4615 47H4.53846C2.58422 47 1 45.4158 1 43.4615V25.7692C1 23.815 2.58422 22.2308 4.53846 22.2308ZM29.3077 34.6154C29.3077 37.5467 26.9314 39.9231 24 39.9231C21.0686 39.9231 18.6923 37.5467 18.6923 34.6154C18.6923 31.684 21.0686 29.3077 24 29.3077C26.9314 29.3077 29.3077 31.684 29.3077 34.6154Z" stroke="#EFEFEF" stroke-width="2" stroke-linecap="round" stroke-linejoin="round"/>
</svg>
