<svg width="50" height="49" viewBox="0 0 50 49" fill="none" xmlns="http://www.w3.org/2000/svg">
<path d="M10.2308 1H4.69231C3.71305 1 2.77389 1.38091 2.08145 2.05892C1.38901 2.73694 1 3.65652 1 4.61538V10.0385M39.7692 1H45.3077C46.287 1 47.2261 1.38091 47.9185 2.05892C48.611 2.73694 49 3.65652 49 4.61538V10.0385M10.2308 48H4.69231C3.71305 48 2.77389 47.6191 2.08145 46.9411C1.38901 46.2631 1 45.3435 1 44.3846V38.9615M39.7692 48H45.3077C46.287 48 47.2261 47.6191 47.9185 46.9411C48.611 46.2631 49 45.3435 49 44.3846V38.9615M10.2308 33.5385V38.9615H15.7692M25 38.9615V33.5385H19.4615M39.7692 15.4615H34.2308V10.0385M39.7692 28.1154V22.6923H34.2308M34.2308 33.5385V38.9615H39.7692M13.9231 10.0385H21.3077C23.3469 10.0385 25 11.6571 25 13.6538V20.8846C25 22.8813 23.3469 24.5 21.3077 24.5H13.9231C11.8839 24.5 10.2308 22.8813 10.2308 20.8846V13.6538C10.2308 11.6571 11.8839 10.0385 13.9231 10.0385Z" stroke="#EFEFEF" stroke-width="2" stroke-linecap="round" stroke-linejoin="round"/>
</svg>
